:SAMPLES-PER-SECOND 24
:FULLY-SPECIFIED
:DEGREES
614
root  1.41932 40.2617 35.5983 5.78015 -16.321 4.34912
RightUpLeg  -18.5676 -4.98208 3.40417
RightLeg  4.57016 -56.9464 6.40168
RightFoot  -0.605099 1.5259 -16.1461
RightToes  -2.08645e-008 3.77894e-005 6.81332e-007
Spine  -2.02709 -10.165 -15.672
Spine1  1.24886 -13.6032 21.8776
HEad  -31.6763 31.0326 -15.1682
LeftShoulder1  7.78685 -13.7395 -39.0056
LeftArm  25.4382 -2.39993 -37.8041
LeftForeArm  142.879 -76.3095 -135.301
LeftHand  0.0276047 -4.79655 -0.0169911
RightShoulder  3.87174 6.55048 32.6238
RightArm  6.67438 -35.6736 32.2471
RightForeArm  94.0512 80.3929 80.6378
RightHand  0.211322 9.78337 1.20586
LeftUpLeg  -5.77093 25.6495 3.75205
LeftLeg  56.2618 9.3944 15.2498
LeftFoot  14.2628 3.08202 -13.8926
LeftToes  1.24767e-006 1.47042e-008 1.32732e-009
615
root  1.75196 40.9448 34.6841 6.63281 -7.83273 4.48871
RightUpLeg  -19.5794 -6.46615 0.786545
RightLeg  6.52242 -48.2061 4.35943
RightFoot  5.47441 1.91988 -12.6704
RightToes  -2.08645e-008 3.77894e-005 6.81332e-007
Spine  -2.46499 -9.41455 -14.243
Spine1  1.67068 -12.1422 18.1061
HEad  -30.2309 25.4643 -15.5445
LeftShoulder1  7.67211 -13.6525 -38.5851
LeftArm  25.9087 1.27636 -35.1956
LeftForeArm  144.424 -75.8409 -137.158
LeftHand  0.0608879 -5.05013 -0.371916
RightShoulder  3.74114 6.44863 31.7014
RightArm  11.5263 -37.0983 29.8599
RightForeArm  108.048 80.4729 95.0055
RightHand  0.377652 10.2833 2.37272
LeftUpLeg  -5.21703 27.1641 5.9313
LeftLeg  51.1516 8.70292 11.8452
LeftFoot  17.1233 3.92984 -15.8308
LeftToes  1.24767e-006 1.47042e-008 1.32732e-009
616
root  2.18393 41.1681 33.8004 7.16028 0.294495 3.74164
RightUpLeg  -20.5196 -9.9801 -0.408301
RightLeg  11.4023 -24.5085 0.666335
RightFoot  8.13424 1.14557 -6.25013
RightToes  -2.08645e-008 3.77894e-005 6.81332e-007
Spine  -2.19246 -8.66345 -11.5323
Spine1  1.49274 -10.8649 14.8672
HEad  -28.7722 20.6543 -15.5149
LeftShoulder1  7.35405 -13.3821 -37.4623
LeftArm  25.001 5.41134 -32.8702
LeftForeArm  145.286 -75.6078 -138.045
LeftHand  -0.0341834 -5.0074 0.686896
RightShoulder  3.67857 6.41953 31.1761
RightArm  14.4214 -37.9604 28.8081
RightForeArm  112.272 80.4182 98.8186
RightHand  0.223717 9.60952 1.33896
LeftUpLeg  -4.84124 27.4468 8.90415
LeftLeg  46.009 6.81499 7.92167
LeftFoot  15.8696 4.0032 -16.8414
LeftToes  1.24767e-006 1.47042e-008 1.32732e-009
617
root  2.56465 40.8699 32.9005 8.03284 8.71082 2.99634
RightUpLeg  -21.6993 -11.7245 -1.73508
RightLeg  14.4059 -7.3369 -0.721901
RightFoot  6.00027 0.0932883 -0.303507
RightToes  -2.08645e-008 3.77894e-005 6.81332e-007
Spine  -2.18115 -8.34657 -10.7345
Spine1  1.18667 -10.4034 13.7886
HEad  -28.1303 16.0926 -15.1457
LeftShoulder1  7.14453 -13.2118 -36.6805
LeftArm  22.9483 8.78936 -30.2729
LeftForeArm  147.6 -74.8348 -140.665
LeftHand  -0.154171 -4.35733 2.12677
RightShoulder  3.67105 6.4393 31.0248
RightArm  15.833 -37.935 28.7875
RightForeArm  110.689 80.4424 97.4039
RightHand  0.323306 9.35334 2.14567
LeftUpLeg  -5.93943 26.4011 11.3659
LeftLeg  41.0935 5.40928 5.42365
LeftFoot  12.5019 3.18235 -15.3389
LeftToes  1.24767e-006 1.47042e-008 1.32732e-009
618
root  2.89673 40.3141 31.8157 8.703 17.2003 2.12848
RightUpLeg  -24.4129 -16.0641 -1.31573
RightLeg  17.7399 -5.79979 -1.99855
RightFoot  4.23247 0.121879 -0.682239
RightToes  -2.08645e-008 3.77894e-005 6.81332e-007
Spine  -1.08478 -7.9738 -11.2723
Spine1  0.80531 -10.3343 15.0189
HEad  -28.6645 10.9498 -14.4257
LeftShoulder1  7.2533 -13.3262 -37.0239
LeftArm  20.0165 10.5004 -27.1262
LeftForeArm  149.628 -73.9877 -143.147
LeftHand  -0.22154 -3.62465 3.11208
RightShoulder  3.73836 6.48077 31.5518
RightArm  15.5763 -36.6896 29.5508
RightForeArm  110.436 80.4707 96.838
RightHand  0.174128 9.76606 0.922392
LeftUpLeg  -8.29355 23.2811 12.8738
LeftLeg  36.8123 7.45604 6.3031
LeftFoot  12.2613 2.57376 -12.6267
LeftToes  1.24767e-006 1.47042e-008 1.32732e-009
619
root  3.29728 39.5627 30.5641 7.67822 23.9722 1.16748
RightUpLeg  -26.98 -22.8214 0.369984
RightLeg  21.1633 -9.24357 -4.13938
RightFoot  2.91554 0.610808 -4.71888
RightToes  -2.08645e-008 3.77894e-005 6.81332e-007
Spine  1.53804 -6.92055 -10.5633
Spine1  1.02458 -9.57493 14.8475
HEad  -29.9305 5.58442 -13.2198
LeftShoulder1  7.48896 -13.5289 -37.8642
LeftArm  16.0096 10.4045 -24.0435
LeftForeArm  148.368 -74.004 -142.887
LeftHand  -0.286057 -3.3376 4.05325
RightShoulder  3.9142 6.60909 32.8208
RightArm  14.021 -32.7913 30.9286
RightForeArm  102.553 80.5487 88.5267
RightHand  0.113265 9.76328 0.458978
LeftUpLeg  -8.47786 18.9216 13.8987
LeftLeg  34.0775 10.254 7.73302
LeftFoot  9.02525 2.64727 -14.9754
LeftToes  1.24767e-006 1.47042e-008 1.32732e-009
620
root  3.95562 38.671 29.0959 6.37366 27.4941 0.482361
RightUpLeg  -29.395 -24.604 -0.736197
RightLeg  25.473 -11.3278 -6.03279
RightFoot  1.51811 0.607555 -5.28047
RightToes  -2.08645e-008 3.77894e-005 6.81332e-007
Spine  3.50028 -5.45843 -6.80514
Spine1  1.88426 -7.62452 10.7299
HEad  -31.0765 1.21347 -12.1095
LeftShoulder1  7.90724 -13.848 -39.3946
LeftArm  10.8044 9.40916 -21.6085
LeftForeArm  144.185 -75.2442 -138.867
LeftHand  -0.429172 -2.5189 6.53174
RightShoulder  4.11459 6.80042 34.0423
RightArm  13.2083 -25.7003 31.7506
RightForeArm  85.5116 80.0321 70.9739
RightHand  0.0527056 9.42064 0.0223477
LeftUpLeg  -6.50152 15.0736 13.1615
LeftLeg  31.8375 10.0144 6.99182
LeftFoot  -3.77611 1.54333 -22.9108
LeftToes  1.24767e-006 1.47042e-008 1.32732e-009
621
root  4.81415 37.8838 27.4945 6.72961 30.3385 0.618286
RightUpLeg  -33.1367 -26.1481 -3.16619
RightLeg  29.7047 -11.1119 -7.01427
RightFoot  2.2353 0.455056 -3.6985
RightToes  -2.08645e-008 3.77894e-005 6.81332e-007
Spine  3.66631 -4.54661 -2.71173
Spine1  2.72405 -5.87078 6.07699
HEad  -32.0988 -2.04409 -11.2048
LeftShoulder1  8.50009 -14.2727 -41.514
LeftArm  5.43206 9.64588 -20.9392
LeftForeArm  142.285 -76.5921 -134.223
LeftHand  -0.568219 -1.31615 9.9924
RightShoulder  4.19481 6.88516 34.4842
RightArm  13.1053 -18.8327 31.5678
RightForeArm  79.2768 79.4578 61.0053
RightHand  -0.066769 9.86052 -0.92376
LeftUpLeg  -7.0143 9.77972 9.63008
LeftLeg  30.7523 10.5051 7.02497
LeftFoot  -16.4418 -0.958628 -24.6156
LeftToes  1.24767e-006 1.47042e-008 1.32732e-009
622
root  5.52197 37.6862 26.2294 6.93311 35.623 0.566833
RightUpLeg  -33.1731 -30.6776 -4.91966
RightLeg  28.8021 -12.6952 -7.69018
RightFoot  5.01546 0.451252 -2.88679
RightToes  -2.08645e-008 3.77894e-005 6.81332e-007
Spine  2.96288 -4.16347 -1.52794
Spine1  4.02329 -5.40339 5.30408
HEad  -33.0982 -5.55471 -9.54834
LeftShoulder1  8.8129 -14.4809 -42.6222
LeftArm  2.56454 12.5653 -22.6087
LeftForeArm  146.943 -76.1259 -136.822
LeftHand  -0.619505 -0.678135 11.9694
RightShoulder  4.15614 6.81543 34.3832
RightArm  11.8156 -17.5933 30.8705
RightForeArm  92.9153 80.4016 71.648
RightHand  -0.0480647 9.9738 -0.77107
LeftUpLeg  -9.77336 3.56448 6.91891
LeftLeg  31.5437 13.2477 8.96747
LeftFoot  -19.3734 -1.27792 -19.6154
LeftToes  1.24767e-006 1.47042e-008 1.32732e-009
623
root  6.00296 38.2075 25.5229 5.6377 41.0223 -0.85376
RightUpLeg  -26.5045 -31.7803 -6.82128
RightLeg  20.526 -16.2886 -6.81286
RightFoot  7.8071 0.211884 -0.937665
RightToes  -2.08645e-008 3.77894e-005 6.81332e-007
Spine  2.26218 -3.2712 -1.15789
Spine1  4.85265 -4.71872 6.28788
HEad  -33.0562 -9.77975 -6.99485
LeftShoulder1  8.62916 -14.3277 -42.0551
LeftArm  3.95894 18.4921 -24.483
LeftForeArm  153.626 -73.5835 -144.754
LeftHand  -0.599405 -0.392195 12.1349
RightShoulder  4.14623 6.76661 34.4777
RightArm  10.8054 -22.2057 30.1157
RightForeArm  117.154 80.6004 99.418
RightHand  0.000117094 9.72877 -0.404121
LeftUpLeg  -10.5464 1.41622 7.40277
LeftLeg  29.8768 11.2072 7.22323
LeftFoot  -17.2783 -0.838439 -18.0223
LeftToes  1.24767e-006 1.47042e-008 1.32732e-009
624
root  6.36803 39.1147 25.214 5.11304 44.7865 -2.0213
RightUpLeg  -16.7974 -15.669 -13.0255
RightLeg  10.3846 -27.8992 -2.25308
RightFoot  9.63347 -0.510083 3.11103
RightToes  -2.08645e-008 3.77894e-005 6.81332e-007
Spine  1.29454 -2.26219 -0.436344
Spine1  3.80158 -3.34289 5.13041
HEad  -31.6982 -13.55 -4.39417
LeftShoulder1  8.17778 -13.9667 -40.5705
LeftArm  7.69714 26.8273 -23.9951
LeftForeArm  160.132 -70.3484 -151.564
LeftHand  -0.598317 -0.888406 11.2072
RightShoulder  4.17137 6.79241 34.6191
RightArm  12.2607 -27.8987 29.9338
RightForeArm  131.353 79.338 117.842
RightHand  -0.102045 9.53414 -1.19625
LeftUpLeg  -9.5495 2.35144 8.51548
LeftLeg  24.5157 5.9503 3.28554
LeftFoot  -13.2044 -0.233693 -18.5757
LeftToes  1.24767e-006 1.47042e-008 1.32732e-009
625
root  6.61625 40.1574 25.0605 6.16223 48.9956 -2.26978
RightUpLeg  -13.4497 -10.2632 -11.9928
RightLeg  5.84095 -19.1529 -0.649869
RightFoot  9.16955 -1.5655 9.02702
RightToes  -2.08645e-008 3.77894e-005 6.81332e-007
Spine  -0.275235 -2.20695 -0.108483
Spine1  2.28653 -2.79316 3.05604
HEad  -30.4481 -16.4333 -1.77313
LeftShoulder1  7.64812 -13.5401 -38.7325
LeftArm  10.9811 34.9314 -21.0497
LeftForeArm  166.127 -67.5236 -155.981
LeftHand  -0.549933 -2.02218 8.81949
RightShoulder  4.10395 6.75014 34.1329
RightArm  15.0728 -31.6152 30.854
RightForeArm  141.57 78.3551 126.652
RightHand  0.211137 10.2361 1.15723
LeftUpLeg  -9.095 2.95512 8.81591
LeftLeg  17.8005 2.25141 1.16489
LeftFoot  -5.54286 0.849892 -16.5258
LeftToes  1.24767e-006 1.47042e-008 1.32732e-009
626
root  6.69528 41.0381 25.0556 7.24072 54.2177 -2.34149
RightUpLeg  -13.1048 -8.57504 -9.28973
RightLeg  9.70734 -4.53113 -0.518082
RightFoot  6.32875 -2.12023 13.9051
RightToes  -2.08645e-008 3.77894e-005 6.81332e-007
Spine  -2.22341 -2.76168 -0.667122
Spine1  2.25052 -3.00846 1.36496
HEad  -30.3503 -19.4577 1.34806
LeftShoulder1  7.1501 -13.1867 -36.7734
LeftArm  13.0863 39.8963 -17.3869
LeftForeArm  167.658 -65.3728 -158.364
LeftHand  -0.409854 -2.69823 6.10243
RightShoulder  4.02392 6.68179 33.6199
RightArm  17.4301 -32.899 31.5763
RightForeArm  149.391 77.3362 133.074
RightHand  0.519808 10.705 3.31233
LeftUpLeg  -9.67784 5.16904 9.706
LeftLeg  13.0255 -5.44916 -1.13372
LeftFoot  1.02052 2.13371 -19.4276
LeftToes  1.24767e-006 1.47042e-008 1.32732e-009
627
root  6.73517 41.3859 24.998 7.81335 58.6529 -2.25977
RightUpLeg  -13.7851 -6.34609 -6.97595
RightLeg  15.7723 2.63344 0.623333
RightFoot  3.63823 -1.74457 13.4042
RightToes  -2.08645e-008 3.77894e-005 6.81332e-007
Spine  -3.73871 -2.99569 -1.12455
Spine1  3.3307 -2.86468 -0.442577
HEad  -31.0357 -22.7965 4.52381
LeftShoulder1  6.76103 -13.0067 -34.9275
LeftArm  14.195 41.6928 -15.0963
LeftForeArm  166.924 -63.594 -159.865
LeftHand  -0.366364 -2.65648 5.50717
RightShoulder  3.99448 6.64215 33.4848
RightArm  19.7657 -31.7097 30.6649
RightForeArm  149.56 76.5097 136.081
RightHand  0.474263 10.896 2.94447
LeftUpLeg  -10.7026 7.13869 11.1291
LeftLeg  11.6934 -14.9066 -3.56166
LeftFoot  1.964 3.30993 -27.9691
LeftToes  1.24767e-006 1.47042e-008 1.32732e-009
628
root  6.77544 41.2428 24.7374 7.59033 62.1794 -1.92511
RightUpLeg  -13.8749 -4.8242 -5.76186
RightLeg  19.8832 -0.4367 -0.404107
RightFoot  1.59776 -1.00643 8.93004
RightToes  -2.08645e-008 3.77894e-005 6.81332e-007
Spine  -3.2638 -2.98126 -1.68386
Spine1  3.68716 -2.72626 -0.633491
HEad  -31.7546 -25.6011 7.16004
LeftShoulder1  6.37012 -12.8053 -33.0531
LeftArm  13.4989 41.8206 -15.7352
LeftForeArm  168.198 -62.2841 -161.038
LeftHand  -0.39244 -2.38444 6.06937
RightShoulder  3.88063 6.51508 32.8483
RightArm  21.7386 -29.1715 29.4878
RightForeArm  146.567 76.2954 136.142
RightHand  0.197444 9.63635 1.11767
LeftUpLeg  -11.121 3.68242 11.9786
LeftLeg  12.632 -13.7758 -2.97733
LeftFoot  1.74883 3.13599 -27.0218
LeftToes  1.24767e-006 1.47042e-008 1.32732e-009
